<svg width="127" height="44" viewBox="0 0 127 44" fill="none" xmlns="http://www.w3.org/2000/svg">
<path d="M30.8646 16.2337C30.8401 16.1848 30.8156 16.1603 30.7666 16.1113C28.3671 13.4179 24.9637 9.59822 22.5152 6.88036C21.7561 6.07234 20.997 5.26433 20.287 4.43183C20.1156 4.23594 19.9687 4.04007 19.7973 3.84419C19.6503 3.69727 19.5769 3.59933 19.5769 3.59933H19.6014C18.7689 2.61992 18.1078 1.51809 17.6425 0.342793L17.5201 0.0734557C17.5201 0.0489705 17.4957 0.0489705 17.4712 0.0244852C17.4467 0.0244852 17.3978 0 17.3733 0H17.3488C17.2998 0 17.2753 0.0244852 17.2508 0.0244852C17.2263 0.0489705 17.2263 0.0489705 17.2018 0.0734557L17.0794 0.342793C16.5897 1.51809 15.9286 2.61992 15.1206 3.59933H15.1451C15.1451 3.59933 15.0717 3.69727 14.9247 3.84419C14.7533 4.04007 14.6064 4.23594 14.435 4.43183C13.7005 5.26433 12.9659 6.07234 12.2068 6.88036C9.75831 9.59822 6.3304 13.4179 3.93084 16.1113C3.90635 16.1603 3.88188 16.1848 3.8329 16.2337C-5.22664 28.305 4.61643 38.148 4.61643 38.148H4.59195C7.50569 41.527 11.6437 43.6082 16.0755 43.9265C16.4673 43.9755 16.8835 44 17.3242 44H17.3488C17.765 44 18.1813 43.9755 18.5975 43.9265C23.0538 43.6082 27.1674 41.527 30.0811 38.148H30.0566C30.0811 38.148 39.9241 28.305 30.8646 16.2337ZM9.75831 24.7301L9.53794 25.0729L9.51344 25.0974C7.84848 27.1052 6.86907 29.2598 6.55077 31.3901C6.50179 31.6594 6.25694 31.8308 6.01209 31.7819C5.8407 31.7574 5.71827 31.6349 5.64481 31.488C5.20408 30.4597 4.91025 29.3823 4.76334 28.2805C4.22467 24.3873 5.39996 20.9839 7.89746 18.0701C8.90135 16.9193 9.90525 15.7685 10.9091 14.6177C11.0805 14.4218 11.3744 14.3973 11.5702 14.5687C11.5947 14.5932 11.5947 14.5932 11.6192 14.6177C12.4272 15.5481 13.4801 16.7479 14.6554 18.119C14.8023 18.2905 14.8023 18.5598 14.6554 18.7557C13.0394 20.69 11.3254 22.7468 9.78281 24.7056L9.75831 24.7301ZM23.6904 34.818C22.76 37.2665 20.9236 38.7356 18.3281 39.1519C14.6309 39.715 11.1784 37.1931 10.6154 33.4958C10.6154 33.4469 10.6154 33.4224 10.5908 33.3734C10.297 31.2921 10.9336 29.4558 12.2803 27.8887C13.8473 26.0523 17.2998 21.7918 17.3488 21.7184C17.4222 21.7918 21.095 26.3706 22.4662 27.9867C24.2046 30.0189 24.6209 32.3451 23.6904 34.818ZM29.1506 30.9738C29.1261 31.0473 29.0772 31.1452 29.0527 31.2187C28.9548 31.4635 28.6854 31.5859 28.4405 31.488C28.2937 31.4146 28.1712 31.2921 28.1467 31.1208C27.8039 29.064 26.8246 27.0073 25.233 25.0729L25.2085 25.0484L25.0616 24.828L24.9637 24.7056C23.6904 23.0896 16.957 15.2054 14.0188 11.753C13.8718 11.5815 13.8718 11.3122 14.0188 11.1163C14.9982 10.039 15.9776 8.96163 16.9325 7.85977C17.1039 7.66388 17.3978 7.66388 17.5936 7.83528L17.6181 7.85977C18.0589 8.32495 18.4751 8.79018 18.8913 9.27992C21.5602 12.2671 24.2536 15.2054 26.8491 18.2171C30.13 22.0122 30.8891 26.3706 29.1506 30.9738Z" fill="#009CDE"/>
<path d="M118.791 13.9326H121.852V14.5448H120.628V17.581H120.015V14.5693H118.791V13.9326Z" fill="#009CDE"/>
<path d="M125.671 17.581L125.402 14.9365L125.231 15.818L124.594 17.581H123.811L123.174 15.818L123.002 14.9365L122.734 17.581H122.097L122.464 13.9326H123.149L124.202 16.8464L125.255 13.9326H125.941L126.308 17.581H125.671Z" fill="#009CDE"/>
<path d="M47.5634 14.912H40.7075V32.8352H47.5634C52.5094 32.8352 56.5249 28.8196 56.5249 23.8737C56.5249 18.9276 52.5094 14.912 47.5634 14.912ZM51.7993 28.1096C50.673 29.236 49.1549 29.8726 47.5634 29.848H43.6947V17.8748H47.5634C50.8933 17.8992 53.5622 20.6171 53.5377 23.9226C53.5377 25.4897 52.9011 27.0078 51.7993 28.1096ZM114.53 32.8352H117.518V13.8592H114.53V32.8352ZM61.5689 20.6416V19.5398H58.5817V32.8597H61.5689V24.6327C61.5689 23.1881 62.7687 22.527 63.895 22.527H65.7559V19.5153H63.895C63.0135 19.5398 62.1566 19.956 61.5689 20.6416ZM77.5088 26.4201C77.5333 27.4485 77.215 28.4279 76.6029 29.2604C75.9908 30.0195 75.0603 30.4357 74.0809 30.4112C73.2729 30.4357 72.4893 30.1418 71.8772 29.6032C71.2406 28.9911 70.9223 28.0851 70.9223 26.9098V19.7847H67.9351V27.5954C67.9106 29.089 68.5228 30.5336 69.6246 31.562C70.7509 32.6149 72.2445 33.178 73.7626 33.1535C75.1337 33.178 76.4804 32.6884 77.4843 31.7334V32.8597H80.4715V19.7847H77.4843V26.4201H77.5088ZM90.0449 19.4419C88.5275 19.4419 87.0581 19.9805 85.907 20.9844V19.7602H82.92V38.7852H85.907V31.611C87.0581 32.6149 88.5275 33.1535 90.0449 33.1535C93.7179 33.1535 96.73 30.0929 96.73 26.3222C96.73 22.527 93.7423 19.4419 90.0449 19.4419ZM92.6409 29.04C91.9555 29.7501 91.025 30.1663 90.0449 30.1663C87.9398 30.1174 86.2742 28.4034 86.2986 26.2977C86.2986 25.2693 86.691 24.2899 87.4008 23.5309C88.0863 22.7963 89.0412 22.4045 90.0449 22.4045C92.0776 22.4045 93.7423 24.143 93.7423 26.2977C93.7423 27.3261 93.3508 28.3055 92.6409 29.04ZM108.948 20.9844C107.797 19.9805 106.328 19.4174 104.809 19.4419C101.137 19.4419 98.1252 22.5025 98.1252 26.2732C98.1252 30.0439 101.113 33.1291 104.809 33.1291C106.328 33.1535 107.821 32.5904 108.948 31.5865V32.8352H111.935V19.7357H108.948V20.9844ZM104.809 30.1908C102.753 30.1908 101.088 28.4524 101.088 26.2977C101.088 24.1675 102.753 22.429 104.809 22.429C106.867 22.429 108.531 24.1675 108.531 26.2977C108.531 28.4279 106.842 30.1908 104.809 30.1908Z" fill="#009CDE"/>
</svg>
